<?xml version="1.0" encoding="iso-8859-1"?>
<!-- Generator: Adobe Illustrator 19.0.0, SVG Export Plug-In . SVG Version: 6.00 Build 0)  -->
<svg version="1.1" id="Layer_1" xmlns="http://www.w3.org/2000/svg" xmlns:xlink="http://www.w3.org/1999/xlink" x="0px" y="0px"
	 viewBox="0 0 976.271 976.271" style="enable-background:new 0 0 976.271 976.271;" xml:space="preserve">
<g>
	<g>
		<path d="M275.573,630.437h589.502l111.196-446.076H175.336L144.396,63.172H0v41.901h112.163L240.44,606.907l-23.529,47.056
			c-12.57,25.783-11.28,55.438,3.868,79.611c9.669,15.148,23.529,26.429,39.644,32.876c-11.604,15.47-18.694,34.485-18.694,55.115
			c0,50.603,40.935,91.535,91.535,91.535s91.535-40.935,91.535-91.535c0-18.372-5.478-35.454-14.504-49.637h209.179
			c-9.346,14.18-14.504,31.265-14.504,49.637c0,50.603,40.935,91.535,91.535,91.535c50.6,0,91.541-40.932,91.541-91.535
			c0-18.372-5.478-35.454-14.504-49.637h67.041v-41.898H290.077c-13.861,0-26.107-6.768-33.519-18.694
			c-7.411-11.604-8.059-26.107-1.933-38.678L275.573,630.437z M696.187,771.931c27.398,0,49.637,22.239,49.637,49.637
			s-22.239,49.637-49.637,49.637s-49.637-22.239-49.637-49.637C646.55,794.171,668.789,771.931,696.187,771.931z M333.266,771.931
			c27.398,0,49.637,22.239,49.637,49.637s-22.239,49.637-49.637,49.637s-49.637-22.239-49.637-49.637
			C283.629,794.171,305.871,771.931,333.266,771.931z M186.294,226.262h736.474l-90.568,362.273H278.797L186.294,226.262z"/>
	</g>
</g>
<g>
</g>
<g>
</g>
<g>
</g>
<g>
</g>
<g>
</g>
<g>
</g>
<g>
</g>
<g>
</g>
<g>
</g>
<g>
</g>
<g>
</g>
<g>
</g>
<g>
</g>
<g>
</g>
<g>
</g>
</svg>
